<svg width="122" height="42" viewBox="0 0 122 42" fill="none" xmlns="http://www.w3.org/2000/svg">
<rect x="3.60278" y="8.2298" width="31.4628" height="5.55226" rx="2.77613" fill="white"/>
<rect x="3.60278" y="18.2239" width="7.99526" height="5.55226" rx="2.77613" fill="white"/>
<rect x="12.5974" y="18.2239" width="22.4682" height="5.55226" rx="2.77613" fill="url(#paint0_linear_5377_51)"/>
<rect x="3.60278" y="28.2179" width="18.4705" height="5.55226" rx="2.77613" fill="white"/>
<rect x="23.0728" y="28.2179" width="11.9929" height="5.55226" rx="2.77613" fill="white"/>
<path d="M52.1198 31.1945C50.2861 31.1945 48.6006 30.7685 47.0632 29.9164C45.5444 29.0644 44.3312 27.879 43.4236 26.3602C42.5345 24.8228 42.09 23.1002 42.09 21.1924C42.09 19.2846 42.5345 17.5713 43.4236 16.0525C44.3312 14.5336 45.5444 13.3482 47.0632 12.4962C48.6006 11.6442 50.2861 11.2181 52.1198 11.2181C53.9535 11.2181 55.6298 11.6442 57.1486 12.4962C58.686 13.3482 59.8899 14.5336 60.7605 16.0525C61.6495 17.5713 62.0941 19.2846 62.0941 21.1924C62.0941 23.1002 61.6495 24.8228 60.7605 26.3602C59.8714 27.879 58.6674 29.0644 57.1486 29.9164C55.6298 30.7685 53.9535 31.1945 52.1198 31.1945ZM52.1198 26.8603C53.6757 26.8603 54.9167 26.3416 55.8428 25.3044C56.7874 24.2671 57.2597 22.8965 57.2597 21.1924C57.2597 19.4698 56.7874 18.0992 55.8428 17.0805C54.9167 16.0432 53.6757 15.5246 52.1198 15.5246C50.5454 15.5246 49.2859 16.0339 48.3412 17.0527C47.4151 18.0714 46.9521 19.4513 46.9521 21.1924C46.9521 22.915 47.4151 24.2949 48.3412 25.3322C49.2859 26.3509 50.5454 26.8603 52.1198 26.8603ZM80.0459 15.4968V31H75.2949V28.8885C74.8134 29.5738 74.1558 30.1295 73.3223 30.5555C72.5073 30.963 71.5997 31.1667 70.5995 31.1667C69.4141 31.1667 68.3676 30.9074 67.46 30.3888C66.5524 29.8516 65.8485 29.0829 65.3484 28.0827C64.8483 27.0825 64.5983 25.9064 64.5983 24.5542V15.4968H69.3215V23.9152C69.3215 24.9525 69.5901 25.7582 70.1272 26.3324C70.6644 26.9066 71.3867 27.1937 72.2943 27.1937C73.2204 27.1937 73.9521 26.9066 74.4892 26.3324C75.0264 25.7582 75.2949 24.9525 75.2949 23.9152V15.4968H80.0459ZM92.0992 26.9714V31H89.682C87.9594 31 86.6166 30.5832 85.6534 29.7497C84.6902 28.8977 84.2087 27.5178 84.2087 25.61V19.4421H82.3194V15.4968H84.2087V11.7182H88.9596V15.4968H92.0714V19.4421H88.9596V25.6656C88.9596 26.1286 89.0708 26.462 89.293 26.6658C89.5153 26.8695 89.8858 26.9714 90.4044 26.9714H92.0992ZM99.4965 10.4402V31H94.7456V10.4402H99.4965ZM105.329 13.8854C104.495 13.8854 103.81 13.6446 103.273 13.163C102.754 12.6629 102.495 12.0516 102.495 11.3293C102.495 10.5884 102.754 9.97714 103.273 9.49556C103.81 8.99546 104.495 8.74541 105.329 8.74541C106.144 8.74541 106.811 8.99546 107.329 9.49556C107.866 9.97714 108.135 10.5884 108.135 11.3293C108.135 12.0516 107.866 12.6629 107.329 13.163C106.811 13.6446 106.144 13.8854 105.329 13.8854ZM107.691 15.4968V31H102.94V15.4968H107.691ZM119.774 26.9714V31H117.357C115.634 31 114.292 30.5832 113.328 29.7497C112.365 28.8977 111.884 27.5178 111.884 25.61V19.4421H109.994V15.4968H111.884V11.7182H116.635V15.4968H119.746V19.4421H116.635V25.6656C116.635 26.1286 116.746 26.462 116.968 26.6658C117.19 26.8695 117.561 26.9714 118.079 26.9714H119.774Z" fill="white"/>
<defs>
<linearGradient id="paint0_linear_5377_51" x1="12.5974" y1="21" x2="35.0656" y2="21" gradientUnits="userSpaceOnUse">
<stop stop-color="#4776E6"/>
<stop offset="1" stop-color="#8E54E9"/>
</linearGradient>
</defs>
</svg>
